<svg width="548" height="665" viewBox="0 0 548 665" fill="none" xmlns="http://www.w3.org/2000/svg">
<path d="M410.715 410.715C486.325 335.104 486.325 212.515 410.715 136.905C335.104 61.2944 212.515 61.2944 136.905 136.905C61.2944 212.515 61.2944 335.104 136.905 410.715C212.515 486.325 335.104 486.325 410.715 410.715Z" fill="#FFE9E9"/>
<path d="M67.2994 532.486C67.5192 532.486 67.5192 532.706 67.739 532.706C68.8378 533.146 70.1564 532.926 71.2552 532.047L144.877 457.766C145.756 456.887 145.976 455.568 145.536 454.249C145.536 454.03 145.317 454.03 145.317 453.81L67.2994 532.486Z" fill="#A4DFDA"/>
<path d="M59.8275 528.75C61.1461 529.41 62.6845 529.19 63.5636 528.311L140.921 450.294C142.02 449.195 142.02 447.656 141.361 446.558L59.8275 528.75Z" fill="#A4DFDA"/>
<path d="M53.2344 524.135C53.8937 524.575 54.553 525.014 55.2123 525.674L138.504 441.723C138.064 441.063 137.625 440.404 136.966 439.965L53.2344 524.135Z" fill="#A4DFDA"/>
<path d="M85.5402 536.882C86.1995 536.882 86.639 536.882 87.2983 537.102C88.1774 537.102 89.0564 536.882 89.7157 536.222L149.053 476.006C149.712 475.347 149.932 474.468 149.932 473.589C149.932 472.93 149.932 472.49 149.712 471.831L85.5402 536.882Z" fill="#A4DFDA"/>
<path d="M111.473 533.146C113.231 532.486 115.209 531.607 116.967 530.728C117.186 530.509 117.626 530.289 117.846 530.069L143.558 504.137C143.778 503.917 143.998 503.697 144.218 503.257C145.097 501.499 145.756 499.741 146.635 497.763L111.473 533.146Z" fill="#A4DFDA"/>
<path d="M75.8705 535.343C76.31 535.343 76.5298 535.563 76.9693 535.563C78.0682 535.783 79.167 535.563 79.8263 534.684L147.734 466.117C148.394 465.238 148.833 464.139 148.613 463.26C148.613 462.82 148.394 462.601 148.394 462.161L75.8705 535.343Z" fill="#A4DFDA"/>
<path d="M96.9679 536.662C97.847 536.662 98.9458 536.442 99.8249 536.223C100.484 536.223 101.143 535.783 101.583 535.344L148.833 487.654C149.272 487.215 149.712 486.555 149.712 485.896C149.932 485.017 149.932 483.918 150.151 483.039L96.9679 536.662Z" fill="#A4DFDA"/>
<path d="M42.2461 512.488C42.6856 513.147 43.1252 513.806 43.7845 514.466L127.296 430.295C126.637 429.855 125.977 429.416 125.318 428.976L42.2461 512.488Z" fill="#A4DFDA"/>
<path d="M32.3566 465.677C31.917 466.117 31.4775 466.776 31.4775 467.436C31.2577 468.315 31.2577 469.413 31.038 470.292L82.9029 417.988C82.0239 418.208 80.925 418.208 80.046 418.428C79.3867 418.647 78.7274 418.867 78.2878 419.307L32.3566 465.677Z" fill="#A4DFDA"/>
<path d="M38.2903 448.536C38.0705 448.755 37.8507 448.975 37.631 449.195C36.5321 451.173 35.6531 453.151 34.9938 455.129L67.739 421.944C65.7611 422.823 63.7832 423.702 61.8053 424.801C61.5856 425.021 61.3658 425.24 61.146 425.46L38.2903 448.536Z" fill="#A4DFDA"/>
<path d="M31.6973 477.765C31.038 478.424 30.8182 479.303 30.8182 480.182C30.8182 480.841 30.8182 481.501 31.038 481.94L94.7704 417.768C94.1111 417.768 93.6716 417.768 93.0123 417.768C92.1332 417.768 91.2541 417.988 90.5948 418.647L31.6973 477.765Z" fill="#A4DFDA"/>
<path d="M35.8728 496.445C34.9938 497.324 34.774 498.642 35.2135 499.741C35.2135 499.961 35.4333 499.961 35.4333 500.181L113.011 421.944C112.791 421.944 112.791 421.724 112.571 421.724C111.473 421.284 110.154 421.504 109.275 422.383L35.8728 496.445Z" fill="#A4DFDA"/>
<path d="M39.389 503.917C38.51 505.016 38.2902 506.334 38.9495 507.653L120.263 425.68C118.945 425.02 117.406 425.24 116.527 426.119L39.389 503.917Z" fill="#A4DFDA"/>
<path d="M131.471 433.811L47.3007 518.641C47.7402 519.3 48.3995 519.74 49.0588 520.399L133.229 435.569C132.57 434.91 131.911 434.47 131.471 433.811Z" fill="#A4DFDA"/>
<path d="M33.0158 487.654C32.3565 488.313 31.917 489.412 32.1368 490.511C32.1368 490.951 32.3565 491.17 32.3565 491.61L104.22 419.087C103.781 419.087 103.561 418.867 103.121 418.867C102.023 418.647 100.924 419.087 100.264 419.746L33.0158 487.654Z" fill="#A4DFDA"/>
<path d="M409.037 482.38C418.626 482.38 426.399 474.607 426.399 465.018C426.399 455.43 418.626 447.656 409.037 447.656C399.448 447.656 391.675 455.43 391.675 465.018C391.675 474.607 399.448 482.38 409.037 482.38Z" fill="#FFE9E9"/>
<path d="M352.996 188.991H103.341V563.034H352.996V188.991Z" fill="#BDDEF3"/>
<path d="M366.182 174.267H116.527V548.31H366.182V174.267Z" fill="white"/>
<path d="M231.905 417.329H155.206V423.922H231.905V417.329Z" fill="#A4DFDA"/>
<path d="M339.81 453.59H155.206V460.183H339.81V453.59Z" fill="#94A3C0"/>
<path d="M236.52 471.391H155.206V477.984H236.52V471.391Z" fill="#94A3C0"/>
<path d="M183.117 430.515H155.206V437.108H183.117V430.515Z" fill="#A4DFDA"/>
<path d="M332.558 404.802H150.152C144.657 404.802 140.042 400.187 140.042 394.693V202.397C140.042 196.902 144.657 192.287 150.152 192.287H332.558C338.052 192.287 342.667 196.902 342.667 202.397V394.693C342.667 400.407 338.052 404.802 332.558 404.802Z" fill="#A4DFDA"/>
<mask id="mask0_7_474" style="mask-type:luminance" maskUnits="userSpaceOnUse" x="140" y="192" width="203" height="213">
<path d="M342.667 192.287H140.042V404.802H342.667V192.287Z" fill="white"/>
</mask>
<g mask="url(#mask0_7_474)">
<path d="M335.195 424.801C333.657 411.615 328.822 369.859 323.767 361.288C318.053 350.959 263.331 328.103 263.331 328.103L240.036 343.047L216.521 328.323C216.521 328.323 162.019 351.618 156.305 361.947C151.47 370.738 146.635 412.494 145.317 425.68L335.195 424.801Z" fill="#002053"/>
<path d="M227.729 335.136L216.521 328.103L194.544 374.254L212.785 394.253L201.797 410.955L217.62 425.24H233.443L227.729 335.136Z" fill="#505E83"/>
<path d="M253.881 335.136L265.09 328.103L287.506 374.035L269.265 394.033L280.473 410.736L264.65 425.02H248.827L253.881 335.136Z" fill="#505E83"/>
<path d="M262.453 281.293C262.453 281.293 256.958 313.599 262.453 335.795C262.453 335.795 256.079 341.509 242.014 351.179L238.058 352.058C223.774 342.608 216.521 336.235 216.521 336.235C220.038 313.819 216.741 281.513 216.741 281.513" fill="#DC6457"/>
<path d="M220.477 224.373C220.477 224.373 265.969 196.683 283.77 211.627C301.571 226.791 278.056 250.086 278.056 250.086C278.056 250.086 285.308 251.844 285.748 257.558C286.187 263.272 274.54 273.162 274.54 273.162L202.676 273.381C202.676 273.381 190.589 252.064 191.907 241.735C193.226 231.406 202.236 242.174 202.236 242.174C202.236 242.174 211.906 218.879 216.521 218.879C220.916 219.099 220.477 224.373 220.477 224.373Z" fill="#5D1111"/>
<path d="M271.902 275.139C271.902 275.139 275.638 270.524 280.253 273.381C284.868 276.458 279.374 295.358 271.902 292.501C264.65 290.084 271.902 275.139 271.902 275.139Z" fill="#E9C7DB"/>
<path d="M206.632 275.359C206.632 275.359 202.895 270.744 198.28 273.601C193.665 276.678 199.379 295.578 206.851 292.721C214.104 290.084 206.632 275.359 206.632 275.359Z" fill="#E9C7DB"/>
<path d="M239.816 223.055C239.816 223.055 263.771 225.472 270.803 242.614C277.836 259.756 275.858 293.16 269.045 303.05C262.013 312.939 252.783 320.411 239.816 321.291C226.85 320.411 217.4 312.939 210.587 303.05C203.555 293.38 201.577 259.756 208.39 242.614C215.422 225.472 239.377 223.055 239.377 223.055H239.816Z" fill="#F98879"/>
<path d="M237.619 291.402C237.619 291.402 241.135 292.941 245.31 291.182C245.31 291.182 244.431 293.38 242.673 294.259C240.915 295.138 237.838 293.82 237.619 291.402Z" fill="#E9C7DB"/>
<path d="M278.056 250.086C278.056 250.086 253.661 267.008 235.641 263.052C217.839 259.097 231.025 242.174 231.025 242.174L209.708 258.657C209.708 258.657 214.103 269.865 203.555 278.216C203.555 278.216 200.917 263.492 202.676 252.723C204.434 241.955 210.587 232.285 215.202 228.549C219.598 225.033 236.08 216.022 246.849 217.341C257.617 218.879 279.374 224.154 278.056 250.086Z" fill="#5D1111"/>
<path d="M240.036 342.828L216.521 328.103C216.521 328.103 215.642 328.543 214.323 328.982L226.191 425.021H253.662L265.09 328.543C264.211 328.103 263.551 327.884 263.551 327.884L240.036 342.828Z" fill="#F9FBFC"/>
<path d="M237.838 352.717L232.344 365.024L240.915 369.42L248.167 363.486L242.454 352.278L237.838 352.717Z" fill="#DD97C0"/>
<path d="M231.685 425.24L251.903 425.02L244.431 361.947L237.838 365.464L231.685 425.24Z" fill="#DD97C0"/>
</g>
<path d="M166.194 497.104L168.832 505.235C169.051 505.675 169.271 505.895 169.711 505.895H178.282C179.161 505.895 179.6 507.213 178.941 507.653L171.908 512.708C171.469 512.927 171.469 513.367 171.469 513.806L174.106 521.938C174.326 522.817 173.447 523.696 172.568 523.037L165.535 517.982C165.096 517.762 164.656 517.762 164.436 517.982L157.404 523.037C156.525 523.696 155.646 522.817 155.865 521.938L158.503 513.806C158.722 513.367 158.503 512.927 158.063 512.708L151.031 507.653C150.151 506.994 150.591 505.895 151.69 505.895H160.261C160.7 505.895 161.14 505.675 161.14 505.235L163.777 497.104C164.656 496.225 165.975 496.225 166.194 497.104Z" fill="#FDB913"/>
<path d="M205.972 497.104L208.609 505.235C208.829 505.675 209.049 505.895 209.489 505.895H218.059C218.938 505.895 219.378 507.213 218.719 507.653L211.686 512.707C211.247 512.927 211.247 513.367 211.247 513.806L213.884 521.938C214.104 522.817 213.225 523.696 212.345 523.037L205.313 517.982C204.873 517.762 204.434 517.762 204.214 517.982L197.182 523.037C196.302 523.696 195.423 522.817 195.643 521.938L198.28 513.806C198.5 513.367 198.28 512.927 197.841 512.707L190.808 507.653C189.929 506.994 190.369 505.895 191.468 505.895H200.039C200.478 505.895 200.918 505.675 200.918 505.235L203.555 497.104C204.214 496.225 205.533 496.225 205.972 497.104Z" fill="#FDB913"/>
<path d="M245.53 497.104L248.167 505.235C248.387 505.675 248.607 505.895 249.047 505.895H257.617C258.496 505.895 258.936 507.213 258.277 507.653L251.244 512.707C250.805 512.927 250.805 513.367 250.805 513.806L253.442 521.938C253.662 522.817 252.783 523.696 251.903 523.037L244.871 517.982C244.431 517.762 243.992 517.762 243.772 517.982L236.74 523.037C235.86 523.696 234.981 522.817 235.201 521.938L237.838 513.806C238.058 513.367 237.838 512.927 237.399 512.707L230.366 507.653C229.487 506.994 229.927 505.895 231.026 505.895H239.597C240.036 505.895 240.476 505.675 240.476 505.235L243.113 497.104C243.992 496.225 245.31 496.225 245.53 497.104Z" fill="#FDB913"/>
<path d="M285.088 497.104L287.725 505.235C287.945 505.675 288.165 505.895 288.604 505.895H297.175C298.054 505.895 298.494 507.213 297.835 507.653L290.802 512.707C290.363 512.927 290.363 513.367 290.363 513.806L293 521.938C293.22 522.817 292.341 523.696 291.461 523.037L284.429 517.982C283.989 517.762 283.55 517.762 283.33 517.982L276.298 523.037C275.418 523.696 274.539 522.817 274.759 521.938L277.396 513.806C277.616 513.367 277.396 512.927 276.957 512.707L269.924 507.653C269.045 506.994 269.485 505.895 270.584 505.895H279.155C279.594 505.895 280.034 505.675 280.034 505.235L282.671 497.104C283.55 496.225 284.868 496.225 285.088 497.104Z" fill="#FDB913"/>
<path d="M324.866 497.104L327.503 505.235C327.723 505.675 327.943 505.895 328.382 505.895H336.953C337.832 505.895 338.272 507.213 337.613 507.653L330.58 512.707C330.141 512.927 330.141 513.367 330.141 513.806L332.778 521.938C332.998 522.817 332.118 523.696 331.239 523.037L324.207 517.982C323.767 517.762 323.328 517.762 323.108 517.982L316.076 523.037C315.196 523.696 314.317 522.817 314.537 521.938L317.174 513.806C317.394 513.367 317.174 512.927 316.735 512.707L309.702 507.653C308.823 506.994 309.263 505.895 310.362 505.895H318.932C319.372 505.895 319.812 505.675 319.812 505.235L322.449 497.104C323.108 496.225 324.427 496.225 324.866 497.104Z" fill="#FDB913"/>
<path d="M71.475 193.386H58.2889V206.572H71.475V193.386Z" fill="#002053"/>
<path d="M91.6936 221.956H84.8809V228.769H91.6936V221.956Z" fill="#002053"/>
<path d="M53.674 212.066H48.8391V216.901H53.674V212.066Z" fill="#002053"/>
<path d="M527.491 272.283H360.688V376.012H527.491V272.283Z" fill="white"/>
<path d="M422.223 284.589H514.086V326.565" stroke="#002053" stroke-width="1.1246" stroke-miterlimit="10"/>
<path d="M347.063 312.72V284.589H374.094" stroke="#002053" stroke-width="2.2492" stroke-miterlimit="10"/>
<path d="M383.984 388.319H347.063V328.323" stroke="#002053" stroke-width="1.1246" stroke-miterlimit="10"/>
<path d="M514.086 358.211V388.319H426.618" stroke="#002053" stroke-width="2.2492" stroke-miterlimit="10"/>
<circle cx="471.451" cy="272.282" r="1.23575" fill="#002053"/>
<path d="M483.538 272.283H525.733" stroke="#002053" stroke-width="1.1246" stroke-linecap="round" stroke-linejoin="round"/>
<circle cx="531.667" cy="272.282" r="1.23575" fill="#002053"/>
<path d="M531.667 285.468V318.434" stroke="#002053" stroke-width="1.1246" stroke-linecap="round" stroke-linejoin="round"/>
<circle cx="531.667" cy="325.027" r="1.23575" fill="#002053"/>
<path d="M429.036 319.313C435.226 319.313 440.244 314.295 440.244 308.105C440.244 301.914 435.226 296.896 429.036 296.896C422.846 296.896 417.828 301.914 417.828 308.105C417.828 314.295 422.846 319.313 429.036 319.313Z" fill="#3F5ECC"/>
<path d="M491.45 327.444H376.072V331.62H491.45V327.444Z" fill="#A4DFDA"/>
<path d="M459.583 340.63H407.718V344.806H459.583V340.63Z" fill="#94A3C0"/>
<path d="M467.934 353.816H399.147V357.992H467.934V353.816Z" fill="#94A3C0"/>
<path d="M401.805 557.399L414.312 546.001L399.212 529.433L386.705 540.831L401.805 557.399Z" fill="#A6D0F4"/>
<path opacity="0.53" d="M404.952 495.052C406.346 465.348 383.396 440.139 353.692 438.745C323.988 437.351 298.779 460.301 297.385 490.005C295.991 519.709 318.941 544.919 348.645 546.312C378.349 547.706 403.559 524.756 404.952 495.052Z" fill="white"/>
<circle cx="410.136" cy="438.646" r="0.938295" fill="#4361C4"/>
<path d="M406.18 434.471C376.731 406.56 330.58 405.022 299.593 431.394" stroke="#4361C4" stroke-width="0.8539" stroke-linecap="round" stroke-linejoin="round"/>
<circle cx="297.396" cy="433.372" r="0.938295" fill="#4361C4"/>
<path d="M302.011 537.102C326.624 564.133 368.6 566.111 395.631 541.497C422.663 516.883 424.64 474.908 400.027 447.876C375.413 420.845 333.437 418.867 306.406 443.481C279.375 468.095 277.397 510.07 302.011 537.102ZM311.461 528.751C291.462 506.774 293 472.71 314.977 452.711C336.953 432.712 371.017 434.251 391.016 456.227C411.015 478.204 409.477 512.268 387.5 532.267C365.523 552.266 331.459 550.727 311.461 528.751Z" fill="#002053"/>
<path d="M480.145 658.681L506.134 634.996L415.388 535.426L389.4 559.112L480.145 658.681Z" fill="#002053"/>
<path d="M485.989 665L511.978 641.314L506.353 635.142L480.364 658.828L485.989 665Z" fill="#DD97C0"/>
<path d="M419.586 186.573C419.586 172.508 431.014 161.08 445.079 161.08C459.144 161.08 470.572 172.508 470.572 186.573C470.572 186.793 470.572 187.013 470.572 187.453H510.13C510.13 187.233 510.13 187.013 510.13 186.573C510.13 150.532 480.901 121.522 445.079 121.522C409.257 121.522 380.028 150.751 380.028 186.573C380.028 186.793 380.028 187.013 380.028 187.453H419.586C419.586 187.013 419.586 186.793 419.586 186.573Z" fill="#DD97C0"/>
<path d="M487.933 235.581L458.045 208.55C454.309 210.748 449.914 212.066 445.079 212.066C443.76 212.066 442.222 211.847 440.903 211.627V251.405C442.222 251.405 443.54 251.624 445.079 251.624C461.561 251.624 476.505 245.691 487.933 235.581Z" fill="#3F5ECC"/>
<path d="M419.586 187.453H380.028C380.467 221.736 407.279 249.427 440.903 251.624V211.847C429.256 209.869 420.025 199.759 419.586 187.453Z" fill="#A4DFDA"/>
<path d="M371.017 187.013C371.017 146.136 404.202 112.952 445.079 112.952" stroke="#002053" stroke-width="0.8435" stroke-miterlimit="10" stroke-linecap="round" stroke-linejoin="round"/>
<path d="M546.611 419.307H447.716V426.779H546.611V419.307Z" fill="#232839"/>
<path d="M516.063 456.447H447.716V463.919H516.063V456.447Z" fill="#C7D8F2"/>
<path d="M482.879 437.767H447.716V445.239H482.879V437.767Z" fill="#C7D8F2"/>
<path d="M498.043 437.767H487.494V445.239H498.043V437.767Z" fill="#C7D8F2"/>
<path d="M444.419 194.046L505.295 254.042" stroke="#002053" stroke-width="0.8435" stroke-miterlimit="10" stroke-linecap="round" stroke-linejoin="round"/>
<path d="M40.7076 350.519L53.8937 363.705" stroke="#002053" stroke-width="0.8435" stroke-miterlimit="10" stroke-linecap="round" stroke-linejoin="round"/>
<path d="M53.0144 352.058L66.2004 365.244" stroke="#002053" stroke-width="0.8435" stroke-miterlimit="10" stroke-linecap="round" stroke-linejoin="round"/>
<path d="M64.6622 352.058L77.8482 365.244" stroke="#002053" stroke-width="0.8435" stroke-miterlimit="10" stroke-linecap="round" stroke-linejoin="round"/>
<path d="M467.495 498.862L480.681 512.048" stroke="#3F5ECC" stroke-width="0.8435" stroke-miterlimit="10" stroke-linecap="round" stroke-linejoin="round"/>
<path d="M479.802 500.4L492.988 513.586" stroke="#3F5ECC" stroke-width="0.8435" stroke-miterlimit="10" stroke-linecap="round" stroke-linejoin="round"/>
<path d="M491.23 500.4L504.416 513.586" stroke="#3F5ECC" stroke-width="0.8435" stroke-miterlimit="10" stroke-linecap="round" stroke-linejoin="round"/>
<path d="M251.684 119.764H113.231V136.247H251.684V119.764Z" stroke="#002053" stroke-width="1.1246" stroke-miterlimit="10"/>
<path d="M269.705 142.84H258.277V154.268H269.705V142.84Z" stroke="#002053" stroke-width="1.1246" stroke-miterlimit="10"/>
<path d="M495.48 564.634H508.666V551.448H495.48V564.634Z" fill="#002053"/>
<path d="M475.113 536.165H481.925V529.352H475.113V536.165Z" fill="#002053"/>
<path d="M513.216 546.129H518.051V541.294H513.216V546.129Z" fill="#002053"/>
<path d="M103.781 494.247V563.034H155.426" stroke="#002053" stroke-width="1.1246" stroke-miterlimit="10"/>
<path d="M173.007 563.474H197.182" stroke="#002053" stroke-width="1.1246" stroke-miterlimit="10"/>
<path d="M322.449 583.253C323.663 583.253 324.646 582.269 324.646 581.055C324.646 579.841 323.663 578.857 322.449 578.857C321.235 578.857 320.251 579.841 320.251 581.055C320.251 582.269 321.235 583.253 322.449 583.253Z" fill="#002053"/>
<path d="M340.689 583.253C341.903 583.253 342.887 582.269 342.887 581.055C342.887 579.841 341.903 578.857 340.689 578.857C339.476 578.857 338.492 579.841 338.492 581.055C338.492 582.269 339.476 583.253 340.689 583.253Z" fill="#002053"/>
<path d="M358.93 583.253C360.144 583.253 361.128 582.269 361.128 581.055C361.128 579.841 360.144 578.857 358.93 578.857C357.716 578.857 356.732 579.841 356.732 581.055C356.732 582.269 357.716 583.253 358.93 583.253Z" fill="#002053"/>
<path d="M377.391 583.253C378.604 583.253 379.588 582.269 379.588 581.055C379.588 579.841 378.604 578.857 377.391 578.857C376.177 578.857 375.193 579.841 375.193 581.055C375.193 582.269 376.177 583.253 377.391 583.253Z" fill="#002053"/>
<path d="M322.449 599.076C323.663 599.076 324.646 598.092 324.646 596.878C324.646 595.664 323.663 594.681 322.449 594.681C321.235 594.681 320.251 595.664 320.251 596.878C320.251 598.092 321.235 599.076 322.449 599.076Z" fill="#002053"/>
<path d="M340.689 599.076C341.903 599.076 342.887 598.092 342.887 596.878C342.887 595.664 341.903 594.681 340.689 594.681C339.476 594.681 338.492 595.664 338.492 596.878C338.492 598.092 339.476 599.076 340.689 599.076Z" fill="#002053"/>
<path d="M358.93 599.076C360.144 599.076 361.128 598.092 361.128 596.878C361.128 595.664 360.144 594.681 358.93 594.681C357.716 594.681 356.732 595.664 356.732 596.878C356.732 598.092 357.716 599.076 358.93 599.076Z" fill="#002053"/>
<path d="M377.391 599.076C378.604 599.076 379.588 598.092 379.588 596.878C379.588 595.664 378.604 594.681 377.391 594.681C376.177 594.681 375.193 595.664 375.193 596.878C375.193 598.092 376.177 599.076 377.391 599.076Z" fill="#002053"/>
<path d="M322.449 614.899C323.663 614.899 324.646 613.915 324.646 612.701C324.646 611.488 323.663 610.504 322.449 610.504C321.235 610.504 320.251 611.488 320.251 612.701C320.251 613.915 321.235 614.899 322.449 614.899Z" fill="#002053"/>
<path d="M340.689 614.899C341.903 614.899 342.887 613.915 342.887 612.701C342.887 611.488 341.903 610.504 340.689 610.504C339.476 610.504 338.492 611.488 338.492 612.701C338.492 613.915 339.476 614.899 340.689 614.899Z" fill="#002053"/>
<path d="M358.93 614.899C360.144 614.899 361.128 613.915 361.128 612.701C361.128 611.488 360.144 610.504 358.93 610.504C357.716 610.504 356.732 611.488 356.732 612.701C356.732 613.915 357.716 614.899 358.93 614.899Z" fill="#002053"/>
<path d="M377.391 614.899C378.604 614.899 379.588 613.915 379.588 612.701C379.588 611.488 378.604 610.504 377.391 610.504C376.177 610.504 375.193 611.488 375.193 612.701C375.193 613.915 376.177 614.899 377.391 614.899Z" fill="#002053"/>
<path d="M322.449 630.502C323.663 630.502 324.646 629.519 324.646 628.305C324.646 627.091 323.663 626.107 322.449 626.107C321.235 626.107 320.251 627.091 320.251 628.305C320.251 629.519 321.235 630.502 322.449 630.502Z" fill="#002053"/>
<path d="M340.689 630.502C341.903 630.502 342.887 629.519 342.887 628.305C342.887 627.091 341.903 626.107 340.689 626.107C339.476 626.107 338.492 627.091 338.492 628.305C338.492 629.519 339.476 630.502 340.689 630.502Z" fill="#002053"/>
<path d="M358.93 630.502C360.144 630.502 361.128 629.519 361.128 628.305C361.128 627.091 360.144 626.107 358.93 626.107C357.716 626.107 356.732 627.091 356.732 628.305C356.732 629.519 357.716 630.502 358.93 630.502Z" fill="#002053"/>
<path d="M377.391 630.502C378.604 630.502 379.588 629.519 379.588 628.305C379.588 627.091 378.604 626.107 377.391 626.107C376.177 626.107 375.193 627.091 375.193 628.305C375.193 629.519 376.177 630.502 377.391 630.502Z" fill="#002053"/>
<path d="M62.4647 193.606H50.817V205.254H62.4647V193.606Z" fill="#002053"/>
<path d="M80.7052 218.879H74.5518V225.033H80.7052V218.879Z" fill="#002053"/>
<path d="M46.8612 210.089H42.4658V214.484H46.8612V210.089Z" fill="#002053"/>
<path d="M62.4647 193.606H50.817V205.254H62.4647V193.606Z" fill="#002053"/>
<path d="M80.7052 218.879H74.5518V225.033H80.7052V218.879Z" fill="#002053"/>
<path d="M46.8612 210.089H42.4658V214.484H46.8612V210.089Z" fill="#002053"/>
<path d="M367.501 136.906C360.688 136.467 356.293 133.61 353.216 130.533C361.568 122.182 366.622 110.754 366.622 98.0074C366.622 72.5144 345.964 51.8564 320.471 51.8564C294.978 51.8564 274.32 72.5144 274.32 98.0074C274.32 123.5 294.978 144.158 320.471 144.158C328.383 144.158 335.855 142.181 342.448 138.664C356.293 142.84 367.501 136.906 367.501 136.906Z" fill="#A4DFDA"/>
<path d="M359.809 141.301C352.996 140.862 348.601 138.005 345.524 134.928C353.875 126.577 358.93 115.149 358.93 102.403C358.93 76.9098 338.272 56.2517 312.779 56.2517C287.286 56.2517 266.628 76.9098 266.628 102.403C266.628 127.896 287.286 148.554 312.779 148.554C320.691 148.554 328.163 146.576 334.756 143.06C348.601 147.235 359.809 141.301 359.809 141.301Z" stroke="#002053" stroke-width="1.1246" stroke-miterlimit="10"/>
<path d="M314.098 119.325L294.758 99.9853L302.45 92.2935L314.098 103.941L340.03 77.7888L347.722 85.4807L314.098 119.325Z" fill="white"/>
</svg>
