<svg width="2151" height="1318" viewBox="0 0 2151 1318" fill="none" xmlns="http://www.w3.org/2000/svg">
<path opacity="0.5" d="M135.915 426.5L136.415 1233L1731.42 1055.5L1731.42 200L135.915 426.5Z" fill="url(#paint0_linear_33_135)"/>
<path d="M136.417 396L136.416 1211.5L1727.42 1024L1727.42 138.5L136.417 396Z" fill="#3F5ECC"/>
<circle opacity="0.05" cx="1860.92" cy="290" r="290" fill="white"/>
<circle cx="1660.24" cy="296.324" r="2.32435" fill="white" fill-opacity="0.22"/>
<circle cx="1694.33" cy="296.324" r="2.32435" fill="white" fill-opacity="0.22"/>
<circle cx="1728.42" cy="296.324" r="2.32435" fill="white" fill-opacity="0.22"/>
<circle cx="1762.51" cy="296.324" r="2.32435" fill="white" fill-opacity="0.22"/>
<circle cx="1796.6" cy="296.324" r="2.32435" fill="white" fill-opacity="0.22"/>
<circle cx="1660.24" cy="330.415" r="2.32435" fill="white" fill-opacity="0.22"/>
<circle cx="1694.33" cy="330.415" r="2.32435" fill="white" fill-opacity="0.22"/>
<circle cx="1728.42" cy="330.415" r="2.32435" fill="white" fill-opacity="0.22"/>
<circle cx="1762.51" cy="330.415" r="2.32435" fill="white" fill-opacity="0.22"/>
<circle cx="1796.6" cy="330.415" r="2.32435" fill="white" fill-opacity="0.22"/>
<circle cx="1660.24" cy="364.505" r="2.32435" fill="white" fill-opacity="0.22"/>
<circle cx="1694.33" cy="364.505" r="2.32435" fill="white" fill-opacity="0.22"/>
<circle cx="1728.42" cy="364.505" r="2.32435" fill="white" fill-opacity="0.22"/>
<circle cx="1762.51" cy="364.505" r="2.32435" fill="white" fill-opacity="0.22"/>
<circle cx="1796.6" cy="364.505" r="2.32435" fill="white" fill-opacity="0.22"/>
<circle cx="1660.24" cy="398.596" r="2.32435" fill="white" fill-opacity="0.22"/>
<circle cx="1694.33" cy="398.596" r="2.32435" fill="white" fill-opacity="0.22"/>
<circle cx="1728.42" cy="398.596" r="2.32435" fill="white" fill-opacity="0.22"/>
<circle cx="1762.51" cy="398.596" r="2.32435" fill="white" fill-opacity="0.22"/>
<circle cx="1796.6" cy="398.596" r="2.32435" fill="white" fill-opacity="0.22"/>
<circle cx="1660.24" cy="432.686" r="2.32435" fill="white" fill-opacity="0.22"/>
<circle cx="1694.33" cy="432.686" r="2.32435" fill="white" fill-opacity="0.22"/>
<circle cx="1728.42" cy="432.686" r="2.32435" fill="white" fill-opacity="0.22"/>
<circle cx="1762.51" cy="432.686" r="2.32435" fill="white" fill-opacity="0.22"/>
<circle cx="1796.6" cy="432.686" r="2.32435" fill="white" fill-opacity="0.22"/>
<circle cx="1660.24" cy="466.777" r="2.32435" fill="white" fill-opacity="0.22"/>
<circle cx="1694.33" cy="466.776" r="2.32435" fill="white" fill-opacity="0.22"/>
<circle cx="1728.42" cy="466.776" r="2.32435" fill="white" fill-opacity="0.22"/>
<circle cx="1762.51" cy="466.776" r="2.32435" fill="white" fill-opacity="0.22"/>
<circle cx="1796.6" cy="466.776" r="2.32435" fill="white" fill-opacity="0.22"/>
<circle cx="1660.24" cy="500.867" r="2.32435" fill="white" fill-opacity="0.22"/>
<circle cx="1694.33" cy="500.867" r="2.32435" fill="white" fill-opacity="0.22"/>
<circle cx="1728.42" cy="500.867" r="2.32435" fill="white" fill-opacity="0.22"/>
<circle cx="1762.51" cy="500.867" r="2.32435" fill="white" fill-opacity="0.22"/>
<circle cx="1796.6" cy="500.867" r="2.32435" fill="white" fill-opacity="0.22"/>
<circle cx="1660.24" cy="534.958" r="2.32435" fill="white" fill-opacity="0.22"/>
<circle cx="1694.33" cy="534.958" r="2.32435" fill="white" fill-opacity="0.22"/>
<circle cx="1728.42" cy="534.958" r="2.32435" fill="white" fill-opacity="0.22"/>
<circle cx="1762.51" cy="534.958" r="2.32435" fill="white" fill-opacity="0.22"/>
<circle cx="1796.6" cy="534.958" r="2.32435" fill="white" fill-opacity="0.22"/>
<circle cx="1660.24" cy="569.048" r="2.32435" fill="white" fill-opacity="0.22"/>
<circle cx="1694.33" cy="569.048" r="2.32435" fill="white" fill-opacity="0.22"/>
<circle cx="1728.42" cy="569.048" r="2.32435" fill="white" fill-opacity="0.22"/>
<circle cx="1762.51" cy="569.048" r="2.32435" fill="white" fill-opacity="0.22"/>
<circle cx="1796.6" cy="569.048" r="2.32435" fill="white" fill-opacity="0.22"/>
<circle cx="1660.24" cy="603.138" r="2.32435" fill="white" fill-opacity="0.22"/>
<circle cx="1694.33" cy="603.138" r="2.32435" fill="white" fill-opacity="0.22"/>
<circle cx="1728.42" cy="603.138" r="2.32435" fill="white" fill-opacity="0.22"/>
<circle cx="1762.51" cy="603.138" r="2.32435" fill="white" fill-opacity="0.22"/>
<circle cx="1796.6" cy="603.138" r="2.32435" fill="white" fill-opacity="0.22"/>
<circle cx="93.2404" cy="734.324" r="2.32435" fill="white" fill-opacity="0.22"/>
<circle cx="127.33" cy="734.324" r="2.32435" fill="white" fill-opacity="0.22"/>
<circle cx="161.422" cy="734.324" r="2.32435" fill="white" fill-opacity="0.22"/>
<circle cx="195.512" cy="734.324" r="2.32435" fill="white" fill-opacity="0.22"/>
<circle cx="229.602" cy="734.324" r="2.32435" fill="white" fill-opacity="0.22"/>
<circle cx="93.2404" cy="768.415" r="2.32435" fill="white" fill-opacity="0.22"/>
<circle cx="127.33" cy="768.415" r="2.32435" fill="white" fill-opacity="0.22"/>
<circle cx="161.422" cy="768.415" r="2.32435" fill="white" fill-opacity="0.22"/>
<circle cx="195.512" cy="768.415" r="2.32435" fill="white" fill-opacity="0.22"/>
<circle cx="229.602" cy="768.415" r="2.32435" fill="white" fill-opacity="0.22"/>
<circle cx="93.2404" cy="802.505" r="2.32435" fill="white" fill-opacity="0.22"/>
<circle cx="127.33" cy="802.505" r="2.32435" fill="white" fill-opacity="0.22"/>
<circle cx="161.422" cy="802.505" r="2.32435" fill="white" fill-opacity="0.22"/>
<circle cx="195.512" cy="802.505" r="2.32435" fill="white" fill-opacity="0.22"/>
<circle cx="229.602" cy="802.505" r="2.32435" fill="white" fill-opacity="0.22"/>
<circle cx="93.2404" cy="836.596" r="2.32435" fill="white" fill-opacity="0.22"/>
<circle cx="127.33" cy="836.596" r="2.32435" fill="white" fill-opacity="0.22"/>
<circle cx="161.422" cy="836.596" r="2.32435" fill="white" fill-opacity="0.22"/>
<circle cx="195.512" cy="836.596" r="2.32435" fill="white" fill-opacity="0.22"/>
<circle cx="229.602" cy="836.596" r="2.32435" fill="white" fill-opacity="0.22"/>
<circle cx="93.2404" cy="870.686" r="2.32435" fill="white" fill-opacity="0.22"/>
<circle cx="127.33" cy="870.686" r="2.32435" fill="white" fill-opacity="0.22"/>
<circle cx="161.422" cy="870.686" r="2.32435" fill="white" fill-opacity="0.22"/>
<circle cx="195.512" cy="870.686" r="2.32435" fill="white" fill-opacity="0.22"/>
<circle cx="229.602" cy="870.686" r="2.32435" fill="white" fill-opacity="0.22"/>
<circle cx="93.2404" cy="904.777" r="2.32435" fill="white" fill-opacity="0.22"/>
<circle cx="127.33" cy="904.776" r="2.32435" fill="white" fill-opacity="0.22"/>
<circle cx="161.422" cy="904.776" r="2.32435" fill="white" fill-opacity="0.22"/>
<circle cx="195.512" cy="904.776" r="2.32435" fill="white" fill-opacity="0.22"/>
<circle cx="229.602" cy="904.776" r="2.32435" fill="white" fill-opacity="0.22"/>
<circle cx="93.2404" cy="938.867" r="2.32435" fill="white" fill-opacity="0.22"/>
<circle cx="127.33" cy="938.867" r="2.32435" fill="white" fill-opacity="0.22"/>
<circle cx="161.422" cy="938.867" r="2.32435" fill="white" fill-opacity="0.22"/>
<circle cx="195.512" cy="938.867" r="2.32435" fill="white" fill-opacity="0.22"/>
<circle cx="229.602" cy="938.867" r="2.32435" fill="white" fill-opacity="0.22"/>
<circle cx="93.2404" cy="972.958" r="2.32435" fill="white" fill-opacity="0.22"/>
<circle cx="127.33" cy="972.958" r="2.32435" fill="white" fill-opacity="0.22"/>
<circle cx="161.422" cy="972.958" r="2.32435" fill="white" fill-opacity="0.22"/>
<circle cx="195.512" cy="972.958" r="2.32435" fill="white" fill-opacity="0.22"/>
<circle cx="229.602" cy="972.958" r="2.32435" fill="white" fill-opacity="0.22"/>
<circle cx="93.2404" cy="1007.05" r="2.32435" fill="white" fill-opacity="0.22"/>
<circle cx="127.33" cy="1007.05" r="2.32435" fill="white" fill-opacity="0.22"/>
<circle cx="161.422" cy="1007.05" r="2.32435" fill="white" fill-opacity="0.22"/>
<circle cx="195.512" cy="1007.05" r="2.32435" fill="white" fill-opacity="0.22"/>
<circle cx="229.602" cy="1007.05" r="2.32435" fill="white" fill-opacity="0.22"/>
<circle cx="93.2404" cy="1041.14" r="2.32435" fill="white" fill-opacity="0.22"/>
<circle cx="127.33" cy="1041.14" r="2.32435" fill="white" fill-opacity="0.22"/>
<circle cx="161.422" cy="1041.14" r="2.32435" fill="white" fill-opacity="0.22"/>
<circle cx="195.512" cy="1041.14" r="2.32435" fill="white" fill-opacity="0.22"/>
<circle cx="229.602" cy="1041.14" r="2.32435" fill="white" fill-opacity="0.22"/>
<defs>
<linearGradient id="paint0_linear_33_135" x1="274.329" y1="1644.42" x2="1393.75" y2="2457.05" gradientUnits="userSpaceOnUse">
<stop offset="0.234375" stop-color="#3F5ECC"/>
<stop offset="0.71875" stop-color="#4361C4"/>
</linearGradient>
</defs>
</svg>
